<?xml version="1.0" standalone="no"?>
<!DOCTYPE svg PUBLIC "-//W3C//DTD SVG 20010904//EN"
 "http://www.w3.org/TR/2001/REC-SVG-20010904/DTD/svg10.dtd">
<svg version="1.0" xmlns="http://www.w3.org/2000/svg"
 width="300.000000pt" height="300.000000pt" viewBox="0 0 300.000000 300.000000"
 preserveAspectRatio="xMidYMid meet">

<g transform="translate(0.000000,300.000000) scale(0.100000,-0.100000)"
fill="#000000" stroke="none">
<path d="M1020 1866 c0 -141 2 -256 4 -256 2 0 57 58 124 128 l120 128 -115
124 c-64 69 -120 127 -124 128 -5 2 -9 -111 -9 -252z"/>
<path d="M777 1779 c100 -101 184 -181 185 -179 6 8 -6 338 -12 343 -3 3 -84
9 -180 12 l-175 7 182 -183z"/>
<path d="M1257 1762 c-97 -97 -177 -179 -177 -182 0 -6 338 5 344 11 6 6 21
349 15 349 -2 0 -84 -80 -182 -178z"/>
<path d="M538 1660 l-127 -120 262 0 262 1 -125 119 c-69 66 -129 119 -135
119 -5 0 -67 -54 -137 -119z"/>
<path d="M974 1549 c-10 -17 13 -36 27 -22 12 12 4 33 -11 33 -5 0 -12 -5 -16
-11z"/>
<path d="M768 1480 c-92 -3 -169 -8 -171 -10 -3 -3 -8 -84 -12 -180 l-7 -175
186 185 c102 102 186 186 186 187 0 2 -3 2 -7 1 -5 -1 -83 -4 -175 -8z"/>
<path d="M1080 1460 c0 -5 14 -10 30 -10 l30 0 0 -95 c0 -78 3 -95 15 -95 12
0 15 17 15 95 l0 95 30 0 c17 0 30 5 30 10 0 6 -32 10 -75 10 -43 0 -75 -4
-75 -10z"/>
<path d="M1315 1450 c-4 -11 -23 -55 -43 -98 -20 -42 -38 -80 -40 -84 -2 -5 3
-8 12 -8 8 0 24 20 35 45 18 41 23 45 54 45 32 0 37 -4 54 -45 13 -34 23 -45
40 -45 20 0 19 4 -18 80 -22 45 -44 92 -49 105 -11 30 -36 33 -45 5z m32 -76
c-3 -4 -13 -4 -22 0 -13 5 -14 10 -4 28 l12 23 10 -23 c6 -12 7 -25 4 -28z"/>
<path d="M1482 1458 c-6 -6 -12 -25 -12 -40 0 -22 9 -33 40 -53 40 -26 50 -51
28 -73 -17 -17 -38 -15 -60 5 -17 15 -18 15 -18 -4 0 -12 7 -24 16 -27 49 -19
104 9 104 53 0 31 -13 50 -52 74 -16 10 -28 24 -28 33 0 21 27 29 46 13 14
-12 16 -11 13 6 -5 24 -57 33 -77 13z"/>
<path d="M1610 1365 c0 -98 1 -105 20 -105 17 0 20 7 20 42 l0 42 43 -42 c26
-26 52 -42 67 -42 22 0 19 5 -30 55 l-54 55 49 50 c38 39 45 50 30 50 -11 0
-39 -19 -62 -42 l-43 -42 0 42 c0 35 -3 42 -20 42 -19 0 -20 -7 -20 -105z"/>
<path d="M877 1324 c-64 -70 -117 -130 -117 -133 0 -3 54 -62 120 -131 l119
-125 1 258 c0 141 -1 257 -3 257 -2 0 -56 -57 -120 -126z"/>
<path d="M1100 1090 l0 -100 30 0 c29 0 30 2 31 43 l1 42 12 -40 c9 -32 17
-41 38 -43 24 -3 28 2 41 45 l15 48 1 -47 c1 -48 1 -48 36 -48 l35 0 0 100 0
100 -49 0 c-49 0 -49 0 -56 -38 -7 -42 -25 -79 -25 -52 0 8 -5 32 -11 53 -10
36 -12 37 -54 37 l-45 0 0 -100z"/>
<path d="M1392 1098 c-18 -51 -32 -96 -32 -100 0 -15 61 -8 66 7 4 9 19 15 40
15 24 0 34 -5 34 -15 0 -10 11 -15 35 -15 19 0 35 3 35 8 0 4 -15 49 -32 99
l-33 93 -40 0 -41 0 -32 -92z m87 -20 c1 -5 -6 -8 -14 -8 -16 0 -19 9 -8 36 6
16 7 16 14 -2 4 -10 8 -22 8 -26z"/>
<path d="M1600 1090 l0 -100 30 0 c29 0 30 2 30 43 l1 42 37 -42 c27 -31 45
-43 65 -43 l27 0 0 100 0 100 -30 0 c-29 0 -30 -2 -30 -42 l-1 -43 -37 43
c-27 30 -45 42 -65 42 l-27 0 0 -100z"/>
<path d="M1879 1163 c-24 -62 -59 -161 -59 -167 0 -3 16 -6 35 -6 24 0 35 5
35 15 0 21 59 20 74 -1 8 -10 23 -14 43 -12 l30 3 -35 98 -35 97 -39 0 c-33 0
-40 -4 -49 -27z m61 -80 c0 -7 -7 -13 -16 -13 -11 0 -14 5 -10 16 3 9 6 21 6
27 0 16 20 -14 20 -30z"/>
<path d="M2084 1167 c-23 -20 -28 -32 -28 -75 -1 -40 4 -56 23 -76 23 -24 30
-26 103 -24 l78 2 0 53 0 53 -55 0 c-48 0 -55 -2 -55 -20 0 -15 7 -20 26 -20
14 0 23 -4 19 -10 -9 -14 -48 -13 -63 2 -7 7 -12 24 -12 38 0 14 5 31 12 38
15 15 54 16 63 2 3 -5 19 -10 36 -10 37 0 38 21 3 49 -38 30 -114 29 -150 -2z"/>
<path d="M2300 1090 l0 -100 90 0 c89 0 90 0 90 25 0 24 -3 25 -55 25 -42 0
-55 3 -55 15 0 11 12 15 45 15 41 0 45 2 45 25 0 23 -4 25 -45 25 -25 0 -45 5
-45 10 0 6 23 10 50 10 47 0 50 2 50 25 0 25 -1 25 -85 25 l-85 0 0 -100z"/>
<path d="M2510 1090 l0 -100 30 0 c28 0 30 3 30 35 0 22 5 35 13 35 7 0 21
-16 30 -35 14 -30 21 -35 52 -35 40 0 40 0 19 42 -15 29 -15 34 0 59 21 36 20
55 -4 79 -16 16 -33 20 -95 20 l-75 0 0 -100z m118 38 c-7 -20 -58 -23 -58 -4
0 11 10 16 31 16 20 0 29 -4 27 -12z"/>
</g>
</svg>
